<svg width="512" height="512" viewBox="0 0 512 512" xmlns="http://www.w3.org/2000/svg">
  <!-- Full-bleed green background (safe for maskable) -->
  <rect width="512" height="512" fill="#14532d"/>
  <!-- Baseball white circle -->
  <circle cx="256" cy="256" r="170" fill="white"/>
  <circle cx="256" cy="256" r="170" fill="none" stroke="#e5e7eb" stroke-width="3"/>
  <!-- Left seam curve -->
  <path d="M 196 112 C 138 175, 138 337, 196 400" stroke="#dc2626" stroke-width="11" stroke-linecap="round" fill="none"/>
  <!-- Right seam curve -->
  <path d="M 316 112 C 374 175, 374 337, 316 400" stroke="#dc2626" stroke-width="11" stroke-linecap="round" fill="none"/>
  <!-- Left stitch marks -->
  <line x1="178" y1="172" x2="210" y2="182" stroke="#dc2626" stroke-width="7" stroke-linecap="round"/>
  <line x1="165" y1="213" x2="198" y2="218" stroke="#dc2626" stroke-width="7" stroke-linecap="round"/>
  <line x1="160" y1="256" x2="193" y2="256" stroke="#dc2626" stroke-width="7" stroke-linecap="round"/>
  <line x1="165" y1="299" x2="198" y2="294" stroke="#dc2626" stroke-width="7" stroke-linecap="round"/>
  <line x1="178" y1="340" x2="210" y2="330" stroke="#dc2626" stroke-width="7" stroke-linecap="round"/>
  <!-- Right stitch marks -->
  <line x1="302" y1="182" x2="334" y2="172" stroke="#dc2626" stroke-width="7" stroke-linecap="round"/>
  <line x1="314" y1="218" x2="347" y2="213" stroke="#dc2626" stroke-width="7" stroke-linecap="round"/>
  <line x1="319" y1="256" x2="352" y2="256" stroke="#dc2626" stroke-width="7" stroke-linecap="round"/>
  <line x1="314" y1="294" x2="347" y2="299" stroke="#dc2626" stroke-width="7" stroke-linecap="round"/>
  <line x1="302" y1="330" x2="334" y2="340" stroke="#dc2626" stroke-width="7" stroke-linecap="round"/>
</svg>
